<?xml version="1.0" encoding="utf-8"?>
<svg class="yii-icon csv" viewBox="0 0 50 50" xmlns="http://www.w3.org/2000/svg" xmlns:xlink="http://www.w3.org/1999/xlink">
	<style type="text/css">.yii-icon.csv * { fill: none; stroke: #ffffff; stroke-linecap: round; } .yii-icon.csv ._6, .yii-icon.csv ._5, .yii-icon.csv ._4 { fill: #ffffff; stroke: unset; }</style>
	<polygon class="_0" points="15.36,10.57 30.14,10.57 30.14,16.15 34.64,16.15 34.64,38.94 34.64,39.43 15.36,39.43"/>
	
	<line class="_1" x1="25" y1="24.91" x2="25" y2="16.48"/>
	<line class="_2" x1="25" y1="16.08" x2="23" y2="19.4"/>
	<line class="_3" x1="25" y1="16.08" x2="27" y2="19.4"/>

	<path class="_4" d="M22.67,34.43c-0.26,0.13-0.77,0.26-1.44,0.26c-1.53,0-2.69-0.97-2.69-2.75c0-1.7,1.15-2.86,2.84-2.86 c0.68,0,1.11,0.15,1.29,0.24l-0.17,0.57c-0.27-0.13-0.65-0.23-1.1-0.23c-1.28,0-2.12,0.81-2.12,2.24c0,1.33,0.77,2.19,2.09,2.19 c0.43,0,0.86-0.09,1.15-0.23L22.67,34.43z"/>
	<path class="_5" d="M23.46,33.76c0.31,0.19,0.77,0.36,1.26,0.36c0.72,0,1.14-0.38,1.14-0.93c0-0.51-0.29-0.8-1.03-1.08 c-0.89-0.31-1.44-0.77-1.44-1.54c0-0.85,0.7-1.48,1.76-1.48c0.56,0,0.96,0.13,1.2,0.27l-0.19,0.57c-0.18-0.1-0.54-0.26-1.03-0.26 c-0.74,0-1.03,0.44-1.03,0.82c0,0.51,0.33,0.76,1.08,1.05c0.92,0.35,1.39,0.8,1.39,1.6c0,0.84-0.62,1.57-1.91,1.57 c-0.52,0-1.1-0.15-1.39-0.35L23.46,33.76z"/>
	<path class="_6" d="M28.73,34.61l-1.78-5.44h0.76l0.85,2.68c0.23,0.73,0.44,1.4,0.58,2.03h0.02c0.15-0.63,0.38-1.32,0.62-2.03l0.92-2.69h0.75 l-1.95,5.44H28.73z"/>
	
	<line class="_7" x1="30.37" y1="10.57" x2="34.64" y2="15.85"/>
</svg>